inDegrees=yes
name=ik_S55_A11_T01
DataType=double
version=3
OpenSimVersion=4.3-2021-08-27-4bc7ad9
endheader
time	pelvis_tilt	pelvis_list	pelvis_rotation	pelvis_tx	pelvis_ty	pelvis_tz	hip_flexion_r	hip_adduction_r	hip_rotation_r	knee_angle_r	knee_angle_r_beta	ankle_angle_r	subtalar_angle_r	mtp_angle_r	hip_flexion_l	hip_adduction_l	hip_rotation_l	knee_angle_l	knee_angle_l_beta	ankle_angle_l	subtalar_angle_l	mtp_angle_l	lumbar_extension	lumbar_bending	lumbar_rotation	arm_flex_r	arm_add_r	arm_rot_r	elbow_flex_r	pro_sup_r	wrist_flex_r	wrist_dev_r	arm_flex_l	arm_add_l	arm_rot_l	elbow_flex_l	pro_sup_l	wrist_flex_l	wrist_dev_l
16.55999999999974	1.21421682840056	0.5615373651222084	32.19814017268506	0	0.9399999999999999	0	33.51932189978434	-9.639730635326041	-9.121921774559706	37.48275468547816	0.6541974819789254	0	0	0	33.51932189978434	-9.639730635326041	-9.121921774559706	37.48275468547816	0.6541974819789254	0	0	0	1.155681644825523	0.6351554191106752	10.71308068756131	43.411239926645	-17.01081159567383	5.932696750888688	28.36838960608684	116.4396011108671	0	0	-0.7045916906620202	-5.536016051400067	-5.502198320456801	12.3109910165409	138.0125923723274	0	0
16.57999999999974	1.142304190573544	0.5562831007470597	31.9144221739045	0	0.9399999999999999	0	33.52291455024997	-9.640113856381484	-9.122521843006808	37.48663052267597	0.6542651280992985	0	0	0	33.52291455024997	-9.640113856381484	-9.122521843006808	37.48663052267597	0.6542651280992985	0	0	0	1.089729463922116	0.6757645306172018	10.8316352711514	41.04220991068923	-17.3320909590353	5.007345208466403	28.20350576622489	116.5495984828216	0	0	-0.5969937975600377	-5.429744774049102	-5.752428594659144	12.25131032563893	137.9982430946339	0	0
16.59999999999973	1.053371397431072	0.5533212093239658	31.84990889863624	0	0.9399999999999999	0	33.5299681729145	-9.640862076142104	-9.123695919197118	37.49427223330128	0.6543985011101948	0	0	0	33.5299681729145	-9.640862076142104	-9.123695919197118	37.49427223330128	0.6543985011101948	0	0	0	1.01212982024413	0.7189900522342425	10.85738378852841	41.147099657427	-17.24581377054263	5.00181662209609	23.42737919622724	116.7470905996769	0	0	-0.5237865504806009	-5.39384982708722	-6.157297410637747	12.36294549751177	138.3597703946901	0	0
16.61999999999973	0.9912965745797256	0.6109824584869631	31.46446180183041	0	0.9399999999999999	0	33.67765677995226	-9.651448150274026	-9.143075855925815	37.7008981478396	0.658004803638833	0	0	0	33.67765677995226	-9.651448150274026	-9.143075855925815	37.7008981478396	0.658004803638833	0	0	0	0.9936243994379028	0.7959198480268136	11.32441674200169	36.56541964741709	-18.23513900021529	2.156329530686936	27.62634533745452	118.196630016443	0	0	-0.5325055891707592	-5.227061569447622	-6.075602652565139	12.38599990696369	138.4141289603014	0	0
16.63999999999973	0.9288878855780102	0.6329802008234977	31.31033982376544	0	0.9399999999999999	0	33.68439377354891	-9.652156703248217	-9.144193337255883	37.7081361843913	0.6581311312080398	0	0	0	33.68439377354891	-9.652156703248217	-9.144193337255883	37.7081361843913	0.6581311312080398	0	0	0	0.9494523473689992	0.8524697174987296	11.57602545553551	34.28048527967704	-18.51375032974146	0.7407021792455167	27.22006446568674	118.3015147521584	0	0	-0.5324795416915251	-5.073364074349432	-5.892511568012451	12.38501916945115	138.3715996811102	0	0
16.65999999999973	0.916692120174871	0.6357236934154826	31.17497960958348	0	0.9399999999999999	0	33.68879441086231	-9.652616872840349	-9.144920709110952	37.71288367257051	0.6582139905079666	0	0	0	33.68879441086231	-9.652616872840349	-9.144920709110952	37.71288367257051	0.6582139905079666	0	0	0	0.9388991642785008	0.8628064562725251	11.82380939465552	31.88654853170562	-18.80692563004475	-0.4524730919968887	29.32928134524913	118.7177433972846	0	0	-0.5206505340695341	-5.062084847070154	-5.552170223142465	12.33138039693203	138.185991222121	0	0
16.67999999999973	0.8927583002677942	0.60232168383831	30.95861372525407	0	0.9399999999999999	0	33.69569683481019	-9.653340530657339	-9.146063724485209	37.72030659837495	0.6583435450033852	0	0	0	33.69569683481019	-9.653340530657339	-9.146063724485209	37.72030659837495	0.6583435450033852	0	0	0	0.9003821518080855	0.8541921720437829	12.05528793772578	29.72688631818498	-18.77872147407518	-1.631763228631464	26.5525372885207	117.802775820462	0	0	-0.4313857636072325	-5.18359432115443	-5.699130223019321	12.36779608034267	138.282456360869	0	0
16.69999999999973	0.8524847492265378	0.5945054747794853	30.85142762004054	0	0.9399999999999999	0	33.81736037499076	-9.66208279279688	-9.162072971426099	37.88809109796779	0.6612719369550915	0	0	0	33.81736037499076	-9.66208279279688	-9.162072971426099	37.88809109796779	0.6612719369550915	0	0	0	0.8686640381441877	0.8590719003659463	12.21651604927066	25.73710576252621	-18.62970052275897	-3.387968002007744	27.67118298866501	118.2450442060919	0	0	-0.3839670667559368	-5.219276148870462	-5.773124332270547	12.40198646818869	138.4417615499885	0	0
16.71999999999973	0.8138636551286902	0.5987744327780053	30.8656474879888	0	0.9399999999999999	0	33.82094550342369	-9.66245129550347	-9.16266011711863	37.89196319142172	0.6613395177348075	0	0	0	33.82094550342369	-9.66245129550347	-9.16266011711863	37.89196319142172	0.6613395177348075	0	0	0	0.8370881212295118	0.8841363380946001	12.28353851668862	23.95859871981382	-18.35873531011243	-3.747879863110251	26.90906536046521	118.036912776292	0	0	-0.3369632617340741	-5.153019663682158	-5.666419045768967	12.39283438367745	138.463423485245	0	0
16.73999999999973	0.7960963303407601	0.6283235403549208	30.91994563067748	0	0.9399999999999999	0	33.82474538501967	-9.662841680003595	-9.163282315520886	37.8960664745767	0.6614111335360033	0	0	0	33.82474538501967	-9.662841680003595	-9.163282315520886	37.8960664745767	0.6614111335360033	0	0	0	0.8365520614457714	0.9204448474122281	12.35348488562992	22.14522194955346	-18.1564671320495	-3.936298546703198	26.14723917107485	117.5813323555545	0	0	-0.3453798238411187	-5.060894122347525	-5.428985104501735	12.38692513701355	138.404937312391	0	0
16.75999999999973	0.7616621679446074	0.6173404108043711	30.93521158405958	0	0.9399999999999999	0	33.82873584795822	-9.663251560080729	-9.163935723536557	37.90037348261922	0.6614863050072552	0	0	0	33.82873584795822	-9.663251560080729	-9.163935723536557	37.90037348261922	0.6614863050072552	0	0	0	0.8007504420503437	0.930475733634481	12.42513395290368	20.51758855458091	-17.88527299495314	-4.275682806551566	25.39569181102742	117.1778424338001	0	0	-0.2640089233705688	-5.028814934943258	-5.321805777712584	12.38544494829484	138.3819927865877	0	0
16.77999999999973	0.7381710101077811	0.6085247982509718	30.94388677018152	0	0.9399999999999999	0	33.83321416047394	-9.663711386259809	-9.164668949958486	37.90520522294066	0.6615706347844658	0	0	0	33.83321416047394	-9.663711386259809	-9.164668949958486	37.90520522294066	0.6615706347844658	0	0	0	0.7756724005415893	0.9368032625762386	12.49989341972497	19.02544642587639	-17.53816045488167	-4.829705532013881	24.55055919953739	117.0018327582637	0	0	-0.181025161396546	-5.051157261228017	-5.389052707136744	12.36417742565602	138.5072400952395	0	0
16.79999999999973	0.758445156759804	0.619879060464042	30.89299243400336	0	0.9399999999999999	0	33.83697999117009	-9.664096925746403	-9.165284439419779	37.90927609324834	0.6616416848747565	0	0	0	33.83697999117009	-9.664096925746403	-9.165284439419779	37.90927609324834	0.6616416848747565	0	0	0	0.7982618641938223	0.9394790404236318	12.60793356690239	17.56681220741599	-17.12099959834138	-5.583139856808002	23.62388682329629	117.0894453863557	0	0	-0.2352547394095892	-5.066496366536382	-5.494077951670995	12.35817952711966	138.6450307916579	0	0
16.81999999999973	0.7331589696943238	0.6144521575858334	30.80807213157171	0	0.9399999999999999	0	33.84046905380877	-9.664454078698185	-9.165854723516272	37.9130456278175	0.661707475664256	0	0	0	33.84046905380877	-9.664454078698185	-9.165854723516272	37.9130456278175	0.661707475664256	0	0	0	0.7727643459070669	0.9514561716516172	12.74422722940855	16.2784301341673	-16.78334870357164	-6.410207984314312	22.64966393002145	117.2108257512909	0	0	-0.2093468779820629	-5.022685170168314	-5.481037926034267	12.37445601240281	138.7204545491315	0	0
16.83999999999973	0.7301706465632897	0.5968062396440162	30.70495858632444	0	0.9399999999999999	0	33.84573508777323	-9.664994522550153	-9.166717031243961	37.91871763354824	0.6618064708394494	0	0	0	33.84573508777323	-9.664994522550153	-9.166717031243961	37.91871763354824	0.6618064708394494	0	0	0	0.7596092533324227	0.9413566346050249	12.88960485436377	15.09402489619447	-16.45266377537692	-7.318108368692296	21.52866238300708	117.6496130683746	0	0	-0.182027178810522	-5.03216919900115	-5.448254067569001	12.38904071119072	138.7274203344361	0	0
16.85999999999973	0.7360362099166667	0.5970193197172098	30.60116898820329	0	0.9399999999999999	0	33.85113924026456	-9.665548343323936	-9.167601287636751	37.92454087162487	0.6619081055170142	0	0	0	33.85113924026456	-9.665548343323936	-9.167601287636751	37.92454087162487	0.6619081055170142	0	0	0	0.7646446733694023	0.9410799220495512	12.99809784275613	14.06755139180455	-16.10803020983718	-8.035257503110115	20.28885356962697	118.4230143937785	0	0	-0.1947452256577865	-5.017716447324413	-5.441679816591826	12.39653186388434	138.7546563382013	0	0
16.87999999999973	0.7325112745060783	0.565778519849902	30.51861319902002	0	0.9399999999999999	0	33.85552199886527	-9.665996344924741	-9.168317348079629	37.92927052104437	0.6619906534718494	0	0	0	33.85552199886527	-9.665996344924741	-9.168317348079629	37.92927052104437	0.6619906534718494	0	0	0	0.7456934807259603	0.9174192583082964	13.02589852494689	13.22174117208691	-15.63494848906232	-8.358161752646774	18.96648991649538	118.9867454182495	0	0	-0.1651957110165666	-5.041851261288095	-5.498742950708072	12.33965002155512	138.8142342805068	0	0
16.89999999999973	0.6962573015852666	0.5483633100417883	30.41035765920014	0	0.9399999999999999	0	33.86252879664558	-9.666710105875477	-9.169459821182135	37.93684704072341	0.6621228886860908	0	0	0	33.86252879664558	-9.666710105875477	-9.169459821182135	37.93684704072341	0.6621228886860908	0	0	0	0.7051401959950004	0.9221882575307022	13.06296547860177	13.34058077685748	-15.58823847927625	-8.336969613965609	16.81686313766031	119.1953263231699	0	0	-0.1340495946785023	-4.969409221883569	-5.561165477248288	12.3634534950086	138.869724683614	0	0
16.91999999999973	0.65918544391543	0.5283266772604386	30.30034849430873	0	0.9399999999999999	0	33.86944867615269	-9.667414346894562	-9.170587701430163	37.94432722483781	0.6622534425275424	0	0	0	33.86944867615269	-9.667414346894562	-9.170587701430163	37.94432722483781	0.6622534425275424	0	0	0	0.662605386818728	0.9249549259062105	13.10812317012231	13.44054042531439	-15.55060366431144	-8.301405870289887	14.69634299295179	119.1377935082619	0	0	-0.05195939934455841	-4.947200570390332	-5.629330496702416	12.37417201545855	138.9600112879337	0	0
16.93999999999973	0.6478317360554984	0.517098272833219	30.21218993033629	0	0.9399999999999999	0	33.87623005118037	-9.668105807607562	-9.171694659135321	37.95163622166324	0.662381008587164	0	0	0	33.87623005118037	-9.668105807607562	-9.171694659135321	37.95163622166324	0.662381008587164	0	0	0	0.6474079858426514	0.9198756002474189	13.19847425616632	13.4589305204827	-15.50812378286623	-8.345810119509503	12.67881623370369	119.045343505406	0	0	-0.03578586224329307	-4.895187475611873	-5.354979147335269	12.39102491778144	138.74401387449	0	0
16.95999999999973	0.6529048939146146	0.5137301773356366	30.14738461135363	0	0.9399999999999999	0	33.88226839498804	-9.668718318408013	-9.172677251596191	37.95816692961236	0.6624949909433624	0	0	0	33.88226839498804	-9.668718318408013	-9.172677251596191	37.95816692961236	0.6624949909433624	0	0	0	0.6494380576529449	0.9153072559247257	13.28920037883174	13.44565653906878	-15.46097831392979	-8.416944061130584	10.77684586722189	119.0551996365527	0	0	-0.03424508514566686	-4.898598764720778	-5.179810726449041	12.42132649325534	138.6627331515545	0	0
16.97999999999973	0.6669742822814704	0.4853410547430138	30.16242469199174	0	0.9399999999999999	0	33.88922108210632	-9.669421058839408	-9.173806184464139	37.96570474575825	0.6626265506535182	0	0	0	33.88922108210632	-9.669421058839408	-9.173806184464139	37.96570474575825	0.6626265506535182	0	0	0	0.6468108716809385	0.8845951932065395	13.3709293247134	13.43207483032298	-15.37835182655438	-8.570945432973962	9.05340324018526	119.2097990312674	0	0	0.03024721162439856	-4.965834890398235	-5.010783530833931	12.42529593921994	138.6508214226168	0	0
